<svg width="167" height="63" viewBox="0 0 167 63" fill="none" xmlns="http://www.w3.org/2000/svg">
<rect width="167" height="63" fill="white"/>
<path d="M27.9432 19.7273V43H23.0227V19.7273H27.9432ZM36.7415 32.9091V43H31.9006V25.5455H36.5142V28.625H36.7188C37.1051 27.6098 37.7528 26.8068 38.6619 26.2159C39.571 25.6174 40.6733 25.3182 41.9688 25.3182C43.1809 25.3182 44.2377 25.5833 45.1392 26.1136C46.0407 26.6439 46.7415 27.4015 47.2415 28.3864C47.7415 29.3636 47.9915 30.5303 47.9915 31.8864V43H43.1506V32.75C43.1581 31.6818 42.8854 30.8485 42.3324 30.25C41.7794 29.6439 41.018 29.3409 40.0483 29.3409C39.3968 29.3409 38.821 29.4811 38.321 29.7614C37.8286 30.0417 37.4422 30.4508 37.1619 30.9886C36.8892 31.5189 36.7491 32.1591 36.7415 32.9091ZM51.8977 43V19.7273H56.8182V29.3295H66.8068V19.7273H71.7159V43H66.8068V33.3864H56.8182V43H51.8977ZM86.875 35.5682V25.5455H91.7159V43H87.0682V39.8295H86.8864C86.4924 40.8523 85.8371 41.6742 84.9205 42.2955C84.0114 42.9167 82.9015 43.2273 81.5909 43.2273C80.4242 43.2273 79.3977 42.9621 78.5114 42.4318C77.625 41.9015 76.9318 41.1477 76.4318 40.1705C75.9394 39.1932 75.6894 38.0227 75.6818 36.6591V25.5455H80.5227V35.7955C80.5303 36.8258 80.8068 37.6402 81.3523 38.2386C81.8977 38.8371 82.6288 39.1364 83.5455 39.1364C84.1288 39.1364 84.6742 39.0038 85.1818 38.7386C85.6894 38.4659 86.0985 38.0644 86.4091 37.5341C86.7273 37.0038 86.8826 36.3485 86.875 35.5682ZM95.679 43V19.7273H100.52V28.4773H100.668C100.88 28.0076 101.187 27.5303 101.588 27.0455C101.997 26.553 102.527 26.1439 103.179 25.8182C103.838 25.4848 104.656 25.3182 105.634 25.3182C106.906 25.3182 108.08 25.6515 109.156 26.3182C110.232 26.9773 111.092 27.9735 111.736 29.3068C112.38 30.6326 112.702 32.2955 112.702 34.2955C112.702 36.2424 112.387 37.8864 111.759 39.2273C111.137 40.5606 110.289 41.572 109.213 42.2614C108.145 42.9432 106.948 43.2841 105.622 43.2841C104.683 43.2841 103.884 43.1288 103.224 42.8182C102.573 42.5076 102.039 42.1174 101.622 41.6477C101.205 41.1705 100.887 40.6894 100.668 40.2045H100.452V43H95.679ZM100.418 34.2727C100.418 35.3106 100.562 36.2159 100.849 36.9886C101.137 37.7614 101.554 38.3636 102.099 38.7955C102.645 39.2197 103.308 39.4318 104.088 39.4318C104.876 39.4318 105.543 39.2159 106.088 38.7841C106.634 38.3447 107.046 37.7386 107.327 36.9659C107.615 36.1856 107.759 35.2879 107.759 34.2727C107.759 33.2652 107.618 32.3788 107.338 31.6136C107.058 30.8485 106.645 30.25 106.099 29.8182C105.554 29.3864 104.884 29.1705 104.088 29.1705C103.3 29.1705 102.634 29.3788 102.088 29.7955C101.55 30.2121 101.137 30.803 100.849 31.5682C100.562 32.3333 100.418 33.2348 100.418 34.2727Z" fill="#408A7E"/>
</svg>
