<svg width="50" height="50" viewBox="0 0 50 50" fill="none" xmlns="http://www.w3.org/2000/svg">
<path d="M1.8678 48.1393C1.89033 45.9161 2.47647 43.735 3.57137 41.8C4.72325 39.7868 6.38332 38.111 8.3857 36.9403C10.3881 35.7696 12.6626 35.1449 14.9821 35.1286C19.6607 35.1393 24.0892 37.725 26.3928 41.8C27.4871 43.734 28.0732 45.9138 28.0964 48.1357M35.3107 4.93931V2.01074M45.3071 8.53574L47.7035 6.8536M25.3071 8.53574L22.9071 6.8536M14.9785 28.9072C15.8636 28.9277 16.7438 28.7711 17.5675 28.4466C18.3912 28.1221 19.1417 27.6362 19.775 27.0174C20.4082 26.3987 20.9114 25.6597 21.2549 24.8437C21.5984 24.0278 21.7754 23.1514 21.7754 22.2661C21.7754 21.3808 21.5984 20.5044 21.2549 19.6885C20.9114 18.8725 20.4082 18.1335 19.775 17.5147C19.1417 16.896 18.3912 16.4101 17.5675 16.0856C16.7438 15.7611 15.8636 15.6045 14.9785 15.625C13.2439 15.6653 11.5938 16.3826 10.3812 17.6237C9.16857 18.8647 8.48967 20.531 8.48967 22.2661C8.48967 24.0012 9.16857 25.6675 10.3812 26.9085C11.5938 28.1496 13.2439 28.8669 14.9785 28.9072ZM42.5714 18.0643C42.5653 17.0978 42.3684 16.1419 41.9919 15.2517C41.6155 14.3615 41.0668 13.5544 40.3776 12.8768C39.6884 12.1991 38.8721 11.6643 37.9756 11.303C37.0791 10.9417 36.12 10.7611 35.1535 10.7715C34.1874 10.8014 33.2367 11.0219 32.356 11.4203C31.4753 11.8187 30.682 12.3872 30.0216 13.093C29.3613 13.7989 28.8468 14.6282 28.5078 15.5334C28.1689 16.4386 28.012 17.4019 28.0464 18.3679C28.1164 19.6598 28.5248 20.9107 29.2306 21.9951C29.9364 23.0795 30.9148 23.9593 32.0678 24.5465V28.1179C32.0743 28.3279 32.1621 28.5272 32.3126 28.6738C32.4632 28.8204 32.6648 28.9028 32.8749 28.9036H37.7357C37.9464 28.9037 38.1489 28.8217 38.3003 28.6751C38.4516 28.5284 38.5399 28.3285 38.5464 28.1179V24.4822C39.7344 23.8754 40.7362 22.9585 41.4454 21.8286C42.1547 20.6988 42.5414 19.398 42.5714 18.0643Z" stroke="#119DD9" stroke-linecap="round" stroke-linejoin="round"/>
</svg>
