<svg width="198" height="79" viewBox="0 0 198 79" fill="none" xmlns="http://www.w3.org/2000/svg">
<path d="M102.658 16.3715C94.1439 13.6787 85.7515 11.5932 76.7891 10.7574C64.7761 9.6371 52.6766 9.93844 40.8572 12.4828C29.8563 14.8511 16.5583 18.7043 9.08755 27.6255C3.73097 34.0221 2.07776 43.4607 2.00128 51.4984C1.91826 60.2225 5.88429 66.9491 13.8029 71.2767C29.2756 79.7325 48.8254 77.0224 65.4352 74.4443C95.1743 69.8282 124.76 62.2321 153.131 52.3998C164.091 48.6015 175.827 44.4067 185.27 37.4889C189.888 34.1054 194.541 29.2169 195.649 23.4793C199.155 5.32133 175.584 1.91944 161.93 2.00143C141.401 2.1247 120.652 8.47292 101.71 15.6505C87.7017 20.9583 74.5052 27.851 61.9316 35.8407C58.041 38.313 53.9159 40.6526 52.3955 45.1117" stroke="#FFEB3B" stroke-width="3" stroke-linecap="round"/>
</svg>
