<svg width="60" height="60" viewBox="0 0 60 60" fill="none" xmlns="http://www.w3.org/2000/svg">
<path d="M10 52.5C12.8675 42.45 14.9575 32.4325 15 22.5H30C30.0425 32.4325 32.1325 42.45 35 52.5" stroke="#fff" stroke-width="2" stroke-linecap="round" stroke-linejoin="round"/>
<path d="M31.25 32.5001H42.5C42.5625 39.0301 44.735 45.7401 47.5 52.5001M22.5 12.5001C23.0679 11.7089 23.8199 11.0678 24.6911 10.6322C25.5622 10.1967 26.5263 9.9797 27.5 10.0001C28.4737 9.9797 29.4378 10.1967 30.3089 10.6322C31.1801 11.0678 31.9321 11.7089 32.5 12.5001C33.0679 13.2913 33.8199 13.9324 34.6911 14.368C35.5622 14.8035 36.5263 15.0205 37.5 15.0001C38.4737 15.0205 39.4378 14.8035 40.3089 14.368C41.1801 13.9324 41.9321 13.2913 42.5 12.5001C43.0679 11.7089 43.8199 11.0678 44.6911 10.6322C45.5622 10.1967 46.5263 9.9797 47.5 10.0001C48.4737 9.9797 49.4378 10.1967 50.3089 10.6322C51.1801 11.0678 51.9321 11.7089 52.5 12.5001M7.5 52.5001H55" stroke="#fff" stroke-width="2" stroke-linecap="round" stroke-linejoin="round"/>
</svg>
