<svg width="50" height="50" viewBox="0 0 50 50" fill="none" xmlns="http://www.w3.org/2000/svg">
<path fill-rule="evenodd" clip-rule="evenodd" d="M23.0847 11.321L25.9909 8.41462C28.3304 6.07134 32.439 4.4474 36.5186 3.86249C38.3273 3.58069 40.1667 3.55623 41.9822 3.78983C43.5915 4.02961 44.576 4.50189 45.0337 4.96328C45.4951 5.42104 45.9673 6.40558 46.2071 8.01499C46.4396 9.56627 46.4214 11.4663 46.1345 13.479C45.5532 17.5588 43.9257 21.6677 41.5826 24.0074L25.4315 40.1632L21.2683 35.9999C21.0997 35.831 20.8994 35.6969 20.679 35.6054C20.4586 35.514 20.2223 35.4668 19.9836 35.4666C19.745 35.4664 19.5086 35.5133 19.2881 35.6045C19.0675 35.6956 18.8671 35.8294 18.6982 35.998C18.3571 36.3386 18.1653 36.8008 18.165 37.2828C18.1648 37.5215 18.2116 37.7579 18.3028 37.9785C18.394 38.199 18.5277 38.3995 18.6964 38.5684L24.1455 44.0178C24.3142 44.187 24.5146 44.3212 24.7353 44.4128C24.956 44.5044 25.1925 44.5515 25.4315 44.5515C25.6704 44.5515 25.9069 44.5044 26.1276 44.4128C26.3483 44.3212 26.5487 44.187 26.7175 44.0178L28.7046 42.027L32.9549 49.1149C33.0966 49.3522 33.2906 49.5541 33.5222 49.7051C33.7537 49.8561 34.0167 49.9522 34.291 49.9862C34.5653 50.0202 34.8438 49.9911 35.1051 49.9012C35.3665 49.8113 35.6039 49.6629 35.7993 49.4673L43.0648 42.2014C43.2643 42.0015 43.4145 41.7579 43.5034 41.4899C43.5923 41.2219 43.6175 40.9368 43.577 40.6573L41.8878 28.8429L44.1546 26.5795C47.2606 23.4697 49.0879 18.4961 49.7309 13.9912C50.0578 11.7134 50.0941 9.45002 49.7999 7.47367C49.5093 5.55546 48.8699 3.65904 47.6057 2.39113C46.3379 1.12685 44.4416 0.483817 42.5199 0.196811C40.3563 -0.0880378 38.1631 -0.0635728 36.0064 0.269471C31.4981 0.905242 26.5213 2.73263 23.4189 5.83883L21.1557 8.10581L9.34205 6.41648C9.0626 6.37597 8.77755 6.40118 8.50955 6.4901C8.24154 6.57902 7.99795 6.7292 7.79813 6.92873L0.53265 14.1947C0.337094 14.3901 0.188705 14.6275 0.0987878 14.8889C0.00887034 15.1503 -0.020204 15.4288 0.0137797 15.7031C0.0477633 15.9775 0.143908 16.2404 0.294891 16.472C0.445873 16.7035 0.64771 16.8976 0.885025 17.0393L7.96887 21.2899L5.98176 23.2771C5.81261 23.4459 5.67841 23.6463 5.58684 23.867C5.49527 24.0877 5.44813 24.3243 5.44813 24.5632C5.44813 24.8022 5.49527 25.0387 5.58684 25.2594C5.67841 25.4801 5.81261 25.6806 5.98176 25.8493L11.4309 31.2988C11.5998 31.4677 11.8002 31.6016 12.0209 31.693C12.2415 31.7844 12.478 31.8315 12.7169 31.8315C12.9557 31.8315 13.1922 31.7844 13.4128 31.693C13.6335 31.6016 13.834 31.4677 14.0029 31.2988C14.1717 31.1299 14.3057 30.9294 14.3971 30.7087C14.4885 30.488 14.5355 30.2515 14.5355 30.0127C14.5355 29.7738 14.4885 29.5373 14.3971 29.3167C14.3057 29.096 14.1717 28.8955 14.0029 28.7266L9.8361 24.5669L12.1865 22.2199L23.0847 11.321ZM34.873 45.2531L31.3492 39.3785L38.6764 32.0544L39.8534 40.2722L34.873 45.2531ZM10.6208 18.6451L17.9444 11.321L9.72712 10.1439L4.75026 15.1211L10.6208 18.6451ZM6.73374 34.9354C6.90262 34.7667 7.03663 34.5665 7.12811 34.346C7.2196 34.1256 7.26678 33.8893 7.26695 33.6506C7.26711 33.4119 7.22027 33.1755 7.1291 32.955C7.03792 32.7344 6.9042 32.5339 6.73556 32.3651C6.56692 32.1962 6.36666 32.0621 6.14623 31.9707C5.9258 31.8792 5.68951 31.832 5.45085 31.8318C5.21219 31.8316 4.97583 31.8785 4.75527 31.9697C4.53471 32.0608 4.33427 32.1946 4.16539 32.3632L0.53265 35.9962C0.192065 36.3373 0.000918501 36.7997 0.00125914 37.2818C0.00159977 37.7638 0.1934 38.2259 0.534466 38.5666C0.875532 38.9072 1.33793 39.0983 1.81992 39.098C2.30192 39.0976 2.76405 38.9058 3.10463 38.5647L6.73374 34.9354ZM12.1829 40.3849C12.3563 40.2173 12.4947 40.0169 12.5899 39.7952C12.6851 39.5736 12.7352 39.3353 12.7373 39.0941C12.7394 38.8529 12.6934 38.6137 12.6021 38.3904C12.5108 38.1672 12.3759 37.9644 12.2054 37.7938C12.0348 37.6233 11.832 37.4884 11.6088 37.3971C11.3856 37.3057 11.1464 37.2598 10.9052 37.2619C10.664 37.264 10.4257 37.3141 10.2041 37.4093C9.98248 37.5045 9.78206 37.6428 9.6145 37.8163L2.34902 45.0823C2.00844 45.4234 1.81729 45.8858 1.81763 46.3678C1.81797 46.8499 2.00977 47.312 2.35084 47.6526C2.6919 47.9932 3.1543 48.1844 3.6363 48.1841C4.11829 48.1837 4.58042 47.9919 4.921 47.6508L12.1829 40.3849ZM17.632 45.8343C17.8008 45.6657 17.9349 45.4654 18.0263 45.245C18.1178 45.0245 18.165 44.7882 18.1652 44.5495C18.1653 44.3109 18.1185 44.0745 18.0273 43.8539C17.9361 43.6333 17.8024 43.4329 17.6338 43.264C17.4651 43.0951 17.2649 42.9611 17.0445 42.8696C16.824 42.7781 16.5877 42.7309 16.3491 42.7308C16.1104 42.7306 15.8741 42.7774 15.6535 42.8686C15.4329 42.9598 15.2325 43.0935 15.0636 43.2622L11.4309 46.8952C11.0903 47.2363 10.8991 47.6987 10.8995 48.1807C10.8998 48.6627 11.0916 49.1249 11.4327 49.4655C11.7738 49.8061 12.2361 49.9973 12.7181 49.9969C13.2001 49.9966 13.6623 49.8048 14.0029 49.4637L17.632 45.8343ZM32.6969 21.8385C33.2928 21.8385 33.8828 21.7211 34.4333 21.4931C34.9838 21.265 35.484 20.9308 35.9053 20.5095C36.3266 20.0881 36.6608 19.5879 36.8889 19.0374C37.1169 18.4868 37.2342 17.8968 37.2342 17.3009C37.2342 16.705 37.1169 16.115 36.8889 15.5644C36.6608 15.0139 36.3266 14.5137 35.9053 14.0923C35.484 13.671 34.9838 13.3367 34.4333 13.1087C33.8828 12.8807 33.2928 12.7633 32.6969 12.7633C31.4936 12.7633 30.3395 13.2414 29.4886 14.0923C28.6377 14.9433 28.1596 16.0974 28.1596 17.3009C28.1596 18.5043 28.6377 19.6585 29.4886 20.5095C30.3395 21.3604 31.4936 21.8385 32.6969 21.8385Z" fill="#119DD9"/>
</svg>
