<svg width="50" height="50" viewBox="0 0 50 50" fill="none" xmlns="http://www.w3.org/2000/svg">
<path d="M48.1429 26.8428C47.7903 31.2732 46.1734 35.5092 43.4842 39.0477C40.795 42.5862 37.1466 45.2783 32.9724 46.8043C28.7982 48.3303 24.2737 48.6259 19.9364 47.6561C15.5991 46.6864 11.6313 44.4919 8.50451 41.3335C5.37769 38.1751 3.22323 34.1855 2.2971 29.8387C1.37096 25.4919 1.71209 20.9706 3.27994 16.8119C4.84779 12.6533 7.57647 9.03207 11.1418 6.37857C14.7071 3.72507 18.9592 2.15079 23.3929 1.84277" stroke="#fff" stroke-linecap="round" stroke-linejoin="round"/>
<path d="M34.9644 28.8928C34.3194 30.5528 33.2709 32.0258 31.9136 33.1787C30.5562 34.3316 28.9329 35.128 27.1905 35.4959C25.448 35.8637 23.6413 35.7914 21.9338 35.2856C20.2263 34.7797 18.6718 33.8562 17.411 32.5985C16.1501 31.3409 15.2226 29.7888 14.7123 28.0826C14.202 26.3764 14.1251 24.5699 14.4885 22.8265C14.8518 21.0831 15.644 19.4577 16.7934 18.0975C17.9428 16.7372 19.4132 15.6849 21.0715 15.0356M25.0001 24.9999L33.9286 16.0714M33.9286 16.0714L41.0715 17.8571L48.2144 10.7142L41.0715 8.9285L39.2858 1.78564L32.1429 8.9285L33.9286 16.0714Z" stroke="#fff" stroke-linecap="round" stroke-linejoin="round"/>
</svg>
